<svg
        width="198"
        height="102"
        viewBox="0 0 198 102"
        fill="none"
        xmlns="http://www.w3.org/2000/svg"
      >
        <g clip-path="url(#clip0_2002_2)">
          <mask
            id="mask0_2002_2"
            style="mask-type: luminance"
            maskUnits="userSpaceOnUse"
            x="0"
            y="0"
            width="198"
            height="102"
          >
            <path
              d="M168.426 0.699371H29.3188C13.4443 0.699371 0.575562 13.5681 0.575562 29.4426V72.5572C0.575562 88.4316 13.4443 101.3 29.3188 101.3H168.426C184.301 101.3 197.17 88.4316 197.17 72.5572V29.4426C197.17 13.5681 184.301 0.699371 168.426 0.699371Z"
              fill="white"
            />
          </mask>
          <g mask="url(#mask0_2002_2)">
            <path
              fill-rule="evenodd"
              clip-rule="evenodd"
              d="M3.70838 16.3934C0.575562 22.542 0.575562 30.5908 0.575562 46.6885V55.3115C0.575562 71.4092 0.575562 79.458 3.70838 85.6066C6.46409 91.0149 10.8612 95.4121 16.2696 98.1678C22.4181 101.301 30.467 101.301 46.5647 101.301H134.232C150.329 101.301 158.378 101.301 164.527 98.1678C169.935 95.4121 174.332 91.0149 177.088 85.6066C180.221 79.458 180.221 71.4092 180.221 55.3115V46.6885C180.221 30.5908 180.221 22.542 177.088 16.3934C174.332 10.9851 169.935 6.5879 164.527 3.83219C158.378 0.699372 150.329 0.699371 134.231 0.699371H46.5647C30.467 0.699371 22.4181 0.699372 16.2696 3.83219C10.8612 6.5879 6.46409 10.9851 3.70838 16.3934ZM197.17 49.684C197.17 44.2919 192.799 39.9206 187.406 39.9206V61.4781C192.799 61.4781 197.17 57.1068 197.17 51.7147V49.684Z"
              fill="white"
              fill-opacity="0.301961"
            />
            <path
              d="M151.478 0.398712H0.575562V101H151.478V0.398712Z"
              fill="white"
            />
          </g>
        </g>
        <defs>
          <clipPath id="clip0_2002_2">
            <rect width="198" height="102" fill="white" />
          </clipPath>
        </defs>
      </svg>