<svg width="20" height="20" viewBox="0 0 20 20" fill="none" xmlns="http://www.w3.org/2000/svg">
<path d="M18.406 15.7734C19.066 13.6734 15.879 12.2634 13.944 11.3109C12.009 10.3584 10.794 12.4284 10.494 12.3909C10.209 12.3609 8.73102 11.0109 8.60402 10.8909C8.48402 10.7634 7.13402 9.27841 7.10402 9.00091C7.07402 8.70841 9.136 7.49341 8.184 5.55091C7.231 3.61591 5.82102 0.42841 3.72102 1.08841C1.62102 1.74841 0.173998 3.32341 1.524 6.70591C2.859 10.0509 4.824 12.2409 5.986 13.4634C5.986 13.4634 5.99402 13.4709 6.00102 13.4784C6.00102 13.4784 6.009 13.4859 6.016 13.4934C6.016 13.4934 6.02402 13.5009 6.03102 13.5084C6.03102 13.5084 6.039 13.5159 6.046 13.5234C7.269 14.6859 9.459 16.6509 12.804 17.9859C16.186 19.3359 17.761 17.8884 18.421 15.7884L18.406 15.7734Z" stroke="white" stroke-width="1.2" stroke-miterlimit="10"/>
</svg>
