<svg width="19" height="15" viewBox="0 0 19 15" fill="none" xmlns="http://www.w3.org/2000/svg">
<path d="M1.245 14.0798C1.933 14.0798 2.48999 13.5224 2.48999 12.8348C2.48999 12.1472 1.933 11.5898 1.245 11.5898C0.556995 11.5898 0 12.1472 0 12.8348C0 13.5224 0.556995 14.0798 1.245 14.0798Z" fill="white"/>
<path d="M17.958 12.8359H5.508" stroke="white" stroke-width="1.2" stroke-miterlimit="10" stroke-linecap="round"/>
<path d="M1.245 8.4099C1.933 8.4099 2.48999 7.8525 2.48999 7.1649C2.48999 6.4774 1.933 5.9199 1.245 5.9199C0.556995 5.9199 0 6.4774 0 7.1649C0 7.8525 0.556995 8.4099 1.245 8.4099Z" fill="white"/>
<path d="M17.958 7.1641H5.508" stroke="white" stroke-width="1.2" stroke-miterlimit="10" stroke-linecap="round"/>
<path d="M1.245 2.74C1.933 2.74 2.48999 2.1826 2.48999 1.495C2.48999 0.807399 1.933 0.25 1.245 0.25C0.556995 0.25 0 0.807399 0 1.495C0 2.1826 0.556995 2.74 1.245 2.74Z" fill="white"/>
<path d="M17.958 1.49609H5.508" stroke="white" stroke-width="1.2" stroke-miterlimit="10" stroke-linecap="round"/>
</svg>
