<svg width="24" height="18" viewBox="0 0 24 18" fill="none" xmlns="http://www.w3.org/2000/svg">
<path d="M14.227 16.8833C14.227 16.8833 17.055 16.5233 17.055 14.1158V11.5883L20.062 13.2458C20.062 13.2458 22.71 14.1758 22.71 12.2258V6.2108C22.71 4.2533 20.062 5.1908 20.062 5.1908L17.055 6.8483V4.3208C17.055 1.9133 14.227 1.5533 14.227 1.5533C14.227 1.5533 6.34499 1.4333 3.69699 1.5533C1.04999 1.6733 0.75 4.4408 0.75 4.4408V14.0108C0.75 14.0108 1.04999 16.7783 3.69699 16.8983C6.34499 17.0183 14.227 16.8983 14.227 16.8983V16.8833Z" stroke="white" stroke-width="1.2" stroke-miterlimit="10"/>
</svg>
