<svg xmlns="http://www.w3.org/2000/svg" viewBox="0 0 41.08 30.98" style="fill: black; stroke: black;"><defs><style>.android_status_bar_wifi_svg__cls-2,.android_status_bar_wifi_svg__cls-3{fill:none;stroke:#current;stroke-linecap:round;stroke-miterlimit:10}.android_status_bar_wifi_svg__cls-2{stroke-width:3px}.android_status_bar_wifi_svg__cls-3{stroke-width:2px}</style></defs><g id="android_status_bar_wifi_svg__Layer_2" data-name="Layer 2"><g id="android_status_bar_wifi_svg__Layer_3" data-name="Layer 3"><circle cx="17.64" cy="24.78" r="1.52"></circle><path class="android_status_bar_wifi_svg__cls-2" d="M11.77 19.3a8.13 8.13 0 0 1 5.87-2.73 8.13 8.13 0 0 1 5.87 2.73M6.68 13.82a16.13 16.13 0 0 1 11-4.49 16.17 16.17 0 0 1 11 4.49M1.5 8.64A23.08 23.08 0 0 1 17.76 1.5a22.21 22.21 0 0 1 16 7.14"></path><path class="android_status_bar_wifi_svg__cls-3" d="m23.51 26.3 3.27 3.27 3.29-3.3M26.79 20.72v8.85M40.08 21.64l-3.27-3.27-3.29 3.29M36.8 27.21v-8.84"></path></g></g></svg>